<svg xmlns="http://www.w3.org/2000/svg" id="Discord__software_-Logo-Black-Logo.wine" width="34.336" height="39.241" data-name="Discord_(software)-Logo-Black-Logo.wine" viewBox="0 0 34.336 39.241">
    <defs>
        <style>
            .cls-1{fill:#a6b3bc}
        </style>
    </defs>
    <path id="Path_415" d="M61.2 83.9a2.186 2.186 0 1 0 2 2.178 2.09 2.09 0 0 0-2-2.178zm7.161 0a2.186 2.186 0 1 0 2 2.178 2.09 2.09 0 0 0-1.998-2.178z" class="cls-1" data-name="Path 415" transform="translate(-47.585 -67.438)"/>
    <path id="Path_416" d="M30.314 0H4.022A4.032 4.032 0 0 0 0 4.042v26.527a4.032 4.032 0 0 0 4.022 4.042h22.25l-1.04-3.63 2.511 2.335 2.374 2.2 4.218 3.728V4.042A4.032 4.032 0 0 0 30.314 0zM22.74 25.624s-.706-.844-1.295-1.589A6.191 6.191 0 0 0 25 21.7a11.228 11.228 0 0 1-2.256 1.158 12.914 12.914 0 0 1-2.844.842 13.745 13.745 0 0 1-5.082-.02 16.47 16.47 0 0 1-2.884-.844 11.5 11.5 0 0 1-1.432-.667c-.059-.039-.118-.059-.177-.1a.271.271 0 0 1-.078-.059c-.353-.2-.549-.334-.549-.334A6.1 6.1 0 0 0 13.126 24c-.589.746-1.315 1.629-1.315 1.629a7.114 7.114 0 0 1-5.984-2.982A26.275 26.275 0 0 1 8.653 11.2a9.7 9.7 0 0 1 5.513-2.06l.2.235a13.237 13.237 0 0 0-5.16 2.57s.432-.235 1.158-.569a14.734 14.734 0 0 1 4.454-1.236 1.933 1.933 0 0 1 .334-.039 16.6 16.6 0 0 1 3.963-.039 15.994 15.994 0 0 1 5.906 1.884 13.058 13.058 0 0 0-4.886-2.492l.275-.314a9.7 9.7 0 0 1 5.513 2.06 26.275 26.275 0 0 1 2.825 11.439 7.172 7.172 0 0 1-6 2.982z" class="cls-1" data-name="Path 416"/>
</svg>
