<svg xmlns="http://www.w3.org/2000/svg" width="34" height="34" viewBox="0 0 34 34">
    <path id="github-1" fill="#a6b3bc" d="M17 0A17.126 17.126 0 0 0 0 17.259 17.215 17.215 0 0 0 12.878 34a2.363 2.363 0 0 1-.127-.82v-2.934h-2.126a2.894 2.894 0 0 1-2.678-1.467c-.553-1.036-.638-2.632-2.04-3.625-.425-.345-.085-.69.382-.648a4.466 4.466 0 0 1 2.295 1.769 2.161 2.161 0 0 0 2.253 1.125 16.884 16.884 0 0 0 2.38-.173 5.332 5.332 0 0 1 2.253-2.8C9.775 23.728 7.055 20.88 7.055 17a7.179 7.179 0 0 1 1.913-4.661c-.382-1.338-.893-4.1.171-5.178A6 6 0 0 1 13.6 9.272a12.909 12.909 0 0 1 4.122-.69 12.707 12.707 0 0 1 4.122.69 6 6 0 0 1 4.462-2.114c1.02 1.036.553 3.84.127 5.178A7.044 7.044 0 0 1 28.3 17c0 3.884-2.678 6.732-8.329 7.336a6.023 6.023 0 0 1 2.678 4.875v3.931c0 .129-.042.259-.042.388A17.175 17.175 0 0 0 34 17.259 17.126 17.126 0 0 0 17 0z"/>
</svg>
