<svg xmlns="http://www.w3.org/2000/svg" id="prefix__Logo" width="46.899" height="55.192" viewBox="0 0 46.899 55.192">
    <g id="prefix__Artboard-Copy-3">
        <g id="prefix__logo-2" data-name="logo">
            <g id="prefix__Group-8">
                <g id="prefix__Group-7">
                    <path id="prefix__Combined-Shape" fill="#04c399" d="M41.044 18.589a1.4 1.4 0 0 1 1.285.805 1.448 1.448 0 0 1-.146 1.519L17.706 51.548a1.623 1.623 0 0 1-.522.393 1.394 1.394 0 0 1-1.267-.013 1.43 1.43 0 0 1-.77-1.645l4.406-16.862-18.127.056a1.4 1.4 0 0 1-1.286-.805 1.5 1.5 0 0 1 .146-1.519L24.783.559a1.356 1.356 0 0 1 1.728-.4 1.43 1.43 0 0 1 .812 1.625l-4.406 16.861z"/>
                    <path id="prefix__Combined-Shape-Copy" fill="none" stroke="#04c399" d="M42.738 20.648c.552-.006 4.884 2.318 5.116 2.811a1.449 1.449 0 0 1-.146 1.519L23.23 55.613a1.623 1.623 0 0 1-.522.393 1.394 1.394 0 0 1-1.267-.013c-.585-.279-4.2-3.233-4.018-3.918l7.884-12.79H8.137c-.552.006-6.032-5.267-5.714-5.665Q19.633 11.6 27 2.408c.8-1 4.435 1.494 5.039 1.815a1.43 1.43 0 0 1 .812 1.625L28.442 22.71z" transform="translate(-1.627 -1.467)"/>
                </g>
            </g>
        </g>
    </g>
</svg>
